<?xml version="1.0" standalone="no"?>
<!DOCTYPE svg PUBLIC "-//W3C//DTD SVG 20010904//EN"
 "http://www.w3.org/TR/2001/REC-SVG-20010904/DTD/svg10.dtd">
<svg version="1.0" xmlns="http://www.w3.org/2000/svg"
 width="1080.000000pt" height="1080.000000pt" viewBox="0 0 1080.000000 1080.000000"
 preserveAspectRatio="xMidYMid meet">

<g transform="translate(0.000000,1080.000000) scale(0.100000,-0.100000)"
fill="#000000" stroke="none">
<path d="M8653 8898 c-26 -39 -271 -395 -459 -668 -40 -58 -112 -163 -161
-235 -48 -71 -91 -134 -96 -140 -7 -10 -27 -38 -162 -235 -39 -58 -100 -145
-134 -195 -34 -49 -91 -133 -127 -185 -36 -52 -95 -138 -131 -190 -116 -168
-228 -330 -238 -347 -5 -9 -48 -71 -95 -138 -47 -68 -121 -175 -165 -240 -44
-64 -109 -159 -145 -211 -36 -51 -90 -130 -120 -174 -30 -44 -90 -131 -132
-193 -42 -61 -101 -147 -130 -190 -29 -43 -57 -84 -63 -90 -5 -7 -14 -20 -20
-29 -5 -10 -76 -113 -157 -230 -81 -117 -184 -267 -229 -333 -46 -66 -116
-167 -156 -225 -39 -58 -112 -163 -160 -235 -48 -71 -90 -132 -93 -135 -3 -3
-22 -30 -42 -60 -20 -30 -75 -111 -123 -180 -48 -69 -111 -161 -141 -205 -30
-44 -87 -127 -127 -185 -40 -58 -108 -157 -152 -220 -43 -63 -95 -138 -114
-167 -20 -28 -82 -120 -139 -203 l-104 -152 69 -136 c59 -117 304 -598 457
-897 25 -49 51 -90 57 -90 14 0 -1 -29 570 1120 502 1010 1042 2097 1939 3900
963 1937 1040 2092 1040 2103 0 6 6 12 13 15 6 2 9 7 6 11 -4 4 -20 -12 -36
-36z"/>
<path d="M8580 8878 c-50 -45 -240 -220 -259 -239 -21 -20 -181 -170 -351
-329 -74 -69 -173 -161 -219 -205 -184 -173 -236 -220 -247 -230 -6 -5 -73
-68 -149 -140 -77 -71 -171 -159 -209 -195 -39 -36 -109 -101 -156 -145 -47
-45 -119 -112 -160 -150 -41 -39 -106 -100 -145 -136 -168 -157 -254 -238
-470 -440 -38 -36 -113 -105 -165 -155 -221 -207 -389 -363 -440 -409 -30 -28
-97 -91 -150 -140 -91 -87 -232 -219 -255 -240 -7 -5 -75 -70 -153 -143 -144
-136 -191 -177 -196 -171 -4 5 -104 213 -184 379 -33 69 -103 215 -157 325
-54 110 -123 254 -155 320 -32 66 -100 208 -153 315 -52 107 -127 263 -167
345 -40 83 -105 218 -145 300 -40 83 -112 230 -159 328 -47 97 -86 182 -86
187 0 7 -270 10 -790 10 -434 0 -790 -4 -790 -8 0 -5 28 -64 61 -133 34 -68
102 -207 151 -309 50 -102 141 -288 203 -415 148 -302 318 -650 417 -855 44
-91 139 -284 211 -430 71 -146 164 -337 207 -425 43 -88 133 -272 200 -410 68
-137 183 -374 257 -525 73 -151 141 -291 151 -310 17 -33 17 -38 1 -85 -9 -27
-27 -84 -39 -125 -12 -41 -26 -84 -30 -95 -13 -33 -26 -75 -60 -185 -17 -58
-35 -112 -40 -120 -4 -9 -11 -31 -15 -50 -4 -19 -12 -41 -19 -49 -22 -29 18 2
44 33 14 17 101 116 194 220 141 160 332 376 371 420 6 6 44 49 85 96 41 47
82 92 90 100 9 8 28 31 44 50 16 19 59 68 95 109 155 175 238 268 266 300 17
19 53 60 80 91 28 31 64 72 80 91 17 19 70 79 120 134 125 140 474 534 610
690 81 93 117 133 221 250 49 55 105 118 124 139 19 22 60 67 90 101 30 33 82
92 115 130 33 39 78 90 101 115 22 25 54 61 71 80 29 33 463 523 602 679 36
41 82 93 101 115 19 22 42 47 50 56 18 19 120 135 150 170 36 42 131 150 220
250 47 52 97 108 111 125 22 25 109 123 390 440 15 17 109 122 209 235 192
216 264 300 258 300 -1 0 -19 -15 -38 -32z"/>
</g>
</svg>
